<svg width="138" height="20" viewBox="0 0 138 20" fill="none" xmlns="http://www.w3.org/2000/svg">
<g clip-path="url(#clip0)">
<path d="M77.9936 -1.8145e-05H90.3059C91.1541 0.0675494 91.9753 0.385117 92.635 0.932414C93.5573 1.68241 94.1295 2.85809 94.1362 4.05404V15C94.1362 15.7432 94.1766 16.5135 93.9141 17.2297C93.3822 18.8176 91.8138 19.9797 90.1376 19.9932H79.2322C78.5658 19.9865 77.8791 20.0405 77.2329 19.8513C75.9202 19.5067 74.8229 18.4527 74.4123 17.1554C74.1498 16.3986 74.2238 15.5878 74.2171 14.7973V4.05404C74.2238 2.98647 74.6681 1.93917 75.4288 1.18917C76.1087 0.499982 77.0377 0.0945765 77.9936 -1.8145e-05V-1.8145e-05ZM78.5052 4.33106V15.6554H89.7942V4.32431C86.0312 4.33106 82.2682 4.33106 78.5052 4.33106ZM6.44898 -0.0067749H3.036C2.43688 0.121603 1.87141 0.405387 1.41366 0.810793C1.11746 1.08106 0.767415 1.28377 0.525073 1.60809C0.188488 2.0135 0.0403902 2.54728 0 3.06755V3.55404C2.16088 4.68917 4.32849 5.79728 6.48263 6.94593C6.48263 6.53377 6.46917 6.1216 6.45571 5.70944C6.44898 3.80404 6.45571 1.89863 6.44898 -0.0067749V-0.0067749Z" fill="white"/>
<path d="M29.3234 0H41.5818C42.5242 0.0608108 43.4532 0.445946 44.1466 1.09459C44.9678 1.84459 45.4593 2.93919 45.466 4.05405V20H41.124V13.5541C37.361 13.5473 33.6047 13.5608 29.8417 13.5473C29.8282 15.6959 29.8417 17.8514 29.835 20H25.5469C25.5401 14.7027 25.5469 9.41216 25.5469 4.11486C25.5401 3.02703 25.9844 1.93919 26.7586 1.17568C27.4385 0.493243 28.3675 0.0945946 29.3234 0V0ZM29.835 4.33108C29.8417 5.95946 29.8282 7.58784 29.8417 9.21622C33.6047 9.20946 37.361 9.21622 41.124 9.21622V4.33108H29.835ZM-0.0201416 4.02703V15.3716C3.52074 13.473 7.07508 11.5946 10.6227 9.7027C7.07508 7.80405 3.52074 5.92568 -0.0201416 4.02703V4.02703Z" fill="white"/>
<path d="M48.6029 0H53.0257C55.2808 2.68919 57.5292 5.38513 59.7776 8.08108C62.026 5.38513 64.2609 2.68919 66.5093 0H70.9589V20H66.6439V6.58784C64.3484 9.31757 62.0933 12.0811 59.7843 14.8041L52.8978 6.61486V20H48.6164C48.5962 13.3311 48.6029 6.66892 48.6029 0V0ZM6.45569 5.77703H10.6495V9.22973C9.26281 8.47297 7.86935 7.72297 6.48262 6.95946C6.48262 6.56081 6.46915 6.16892 6.45569 5.77703V5.77703Z" fill="white"/>
<path d="M96.122 0H101.245C103.338 2.62162 105.412 5.25676 107.499 7.88513C109.579 5.26351 111.659 2.63514 113.725 0H118.902C116.088 3.80405 113.288 7.62162 110.481 11.4324C110.218 11.8176 109.909 12.1689 109.666 12.5676C109.633 15.0405 109.666 17.5203 109.653 20H105.338V12.6959C105.344 12.5878 105.318 12.4865 105.243 12.4054C103.662 10.277 102.086 8.14865 100.504 6.02027C99.0368 4.02027 97.5895 2 96.122 0V0ZM7.32408 11.8784C8.42808 11.3514 9.53881 10.8311 10.6428 10.3041V12.9392H6.45569C6.46915 12.723 6.48935 12.5068 6.49608 12.2905C6.76535 12.1351 7.04808 12.0135 7.32408 11.8784Z" fill="white"/>
<path d="M119.555 0H138V4.30405C137.711 4.34459 137.414 4.33108 137.125 4.33108H123.904V7.83108C127.674 7.83108 131.45 7.82432 135.22 7.83108C135.213 9.27703 135.22 10.7162 135.22 12.1622C131.45 12.1689 127.674 12.1622 123.904 12.1622V15.6622H137.98V19.9932H119.562C119.555 13.3311 119.555 6.66216 119.555 0ZM6.44898 20.0135C6.45571 17.6757 6.44224 15.3446 6.45571 13.0068C6.46917 12.777 6.48937 12.5473 6.4961 12.3108C4.34195 13.5541 2.16761 14.7568 0 15.9865V16.5203C0.19522 18.2432 1.6358 19.7432 3.3322 20.0203H6.44898V20.0135Z" fill="white"/>
<path d="M21.3328 1.69595C21.0231 1.26351 20.5586 0.986486 20.148 0.655405C19.6162 0.27027 18.9767 0.0472973 18.3304 0H15.1665V5.77703H11.3833C11.3766 6.92568 11.3833 8.07432 11.3833 9.22973C14.8905 7.37162 18.3978 5.50676 21.905 3.64189C21.9319 2.9527 21.7636 2.24324 21.3328 1.69595V1.69595ZM15.2877 7.7027C17.489 6.53378 19.6835 5.35811 21.8848 4.18919C21.8915 7.90541 21.8848 11.6284 21.8848 15.3446C18.3978 13.4865 14.9107 11.6284 11.417 9.77703C12.696 9.06081 13.9952 8.39189 15.2877 7.7027V7.7027ZM11.3766 10.3041C14.8838 12.1622 18.3843 14.027 21.8915 15.8851C22.0329 17.8446 20.4644 19.8176 18.4853 19.9662C17.3745 19.9865 16.2705 19.9662 15.1598 19.973V12.9324C13.901 12.9324 12.6421 12.9257 11.3766 12.9392C11.3698 12.0676 11.3833 11.1824 11.3766 10.3041V10.3041Z" fill="white"/>
</g>
<defs>
<clipPath id="clip0">
<rect width="138" height="20" fill="white"/>
</clipPath>
</defs>
</svg>
